<?xml version="1.0" encoding="utf-8"?>
<!-- Generator: Adobe Illustrator 19.2.1, SVG Export Plug-In . SVG Version: 6.00 Build 0)  -->
<svg version="1.1" id="layer" xmlns="http://www.w3.org/2000/svg" xmlns:xlink="http://www.w3.org/1999/xlink" x="0px" y="0px"
     viewBox="0 0 652 652" style="enable-background:new 0 0 652 652;" xml:space="preserve">
<style type="text/css">
	.st0{fill:#007684;}
	.st1{fill:#FFFFFF;}
</style>
    <rect x="21.8" y="167.3" class="st0" width="600" height="306.9"/>
    <path class="st1" d="M490.6,389.7h-44.8v-65.4h51.1c22.3,0,37.8,12.5,37.8,30.4C534.7,363.4,534.7,389.7,490.6,389.7 M445.8,251.7
	h38.1c13.4,0,23.4,2.3,29.8,6.7c4.1,2.9,9.6,8.5,9.6,22.7c0,25.5-20.1,27.5-26.2,27.5h-51.3V251.7z M545.2,378
	c3.1-6.7,4.7-14.6,4.7-23.4c0-13.4-5.7-25.4-16-33.9c-2.7-2.2-5.6-4.1-8.9-5.8l-0.9-0.4l0.7-0.6c6.1-5.4,13.4-15.4,13.4-32.8
	c0-15.9-5.5-27.9-16.3-35.5c-9.2-6.5-21.8-9.6-38.7-9.6h-48.6c-2.8,0-5.1,2.3-5.1,5.1v159.2c0,2.8,2.3,5.1,5.1,5.1h55.5
	c17.5,0,31.5-3.7,41.6-11.1C537.6,390,542.1,384.5,545.2,378"/>
    <path class="st1" d="M386.6,406.3l2.3-0.6c1.6-0.9,2.5-2.6,2.5-4.5v-234h-15.7v202.4l-104.4-133c-0.9-1.3-2.4-2-3.9-2l-2.3,0.6
	c-1.6,0.9-2.5,2.6-2.5,4.5v234.5h15.7V271.3l104.4,133C383.6,405.5,385.1,406.3,386.6,406.3"/>
    <path class="st1" d="M155.4,389.7H120V251.7h35.5c13,0,31.3,3.4,44.4,19.4c14.1,17.3,15.2,43.1,15.2,50.6c0,11.2-2,32.4-15.2,48.6
	C186.7,386.3,168.5,389.7,155.4,389.7 M211.4,380.2c16.3-19.9,18.7-45.2,18.7-58.5c0-11.3-1.8-39.8-18.7-60.5
	c-7.2-8.8-16.2-15.4-26.8-19.7c-9.1-3.7-19.1-5.5-29.8-5.5h-46.1c-2.8,0-5.2,2.3-5.2,5.1v159.2c0,2.8,2.3,5.1,5.1,5.1h46.1
	c10.7,0,20.7-1.9,29.8-5.5C195.2,395.6,204.3,389,211.4,380.2"/>
</svg>
